HIERARCHY
ROOT mixamorig:Hips
{
	OFFSET -0.000008 104.274872 1.554316
	CHANNELS 6 Xposition Yposition Zposition Xrotation Yrotation Zrotation
	JOINT mixamorig:Spine
	{
		OFFSET -0.000005 10.181595 0.131519
		CHANNELS 6 Xposition Yposition Zposition Xrotation Yrotation Zrotation
		JOINT mixamorig:Spine1
		{
			OFFSET -0.000000 9.893959 -1.470707
			CHANNELS 6 Xposition Yposition Zposition Xrotation Yrotation Zrotation
			JOINT mixamorig:Spine2
			{
				OFFSET -0.000000 9.220757 -1.370641
				CHANNELS 6 Xposition Yposition Zposition Xrotation Yrotation Zrotation
				JOINT mixamorig:Neck
				{
					OFFSET 0.000001 16.740417 -2.049036
					CHANNELS 6 Xposition Yposition Zposition Xrotation Yrotation Zrotation
					JOINT mixamorig:Head
					{
						OFFSET 0.000000 9.617874 1.685006
						CHANNELS 6 Xposition Yposition Zposition Xrotation Yrotation Zrotation
						JOINT mixamorig:HeadTop_End
						{
							OFFSET 0.000002 22.037354 7.501101
							CHANNELS 6 Xposition Yposition Zposition Xrotation Yrotation Zrotation
							End Site
							{
								OFFSET 0.000168 2310.654297 -282.823242
							}
						}
					}
				}
				JOINT mixamorig:RightShoulder
				{
					OFFSET -4.569970 11.014908 -2.160885
					CHANNELS 6 Xposition Yposition Zposition Xrotation Yrotation Zrotation
					JOINT mixamorig:RightArm
					{
						OFFSET -10.592851 -0.524811 -2.232101
						CHANNELS 6 Xposition Yposition Zposition Xrotation Yrotation Zrotation
						JOINT mixamorig:RightForeArm
						{
							OFFSET -27.841511 0.000031 -0.000004
							CHANNELS 6 Xposition Yposition Zposition Xrotation Yrotation Zrotation
							JOINT mixamorig:RightHand
							{
								OFFSET -28.328831 -0.000015 0.000015
								CHANNELS 6 Xposition Yposition Zposition Xrotation Yrotation Zrotation
								JOINT mixamorig:RightHandThumb1
								{
									OFFSET -2.464806 -1.573990 2.681852
									CHANNELS 6 Xposition Yposition Zposition Xrotation Yrotation Zrotation
									JOINT mixamorig:RightHandThumb2
									{
										OFFSET -3.215179 -1.872803 1.924282
										CHANNELS 6 Xposition Yposition Zposition Xrotation Yrotation Zrotation
										JOINT mixamorig:RightHandThumb3
										{
											OFFSET -2.654831 -1.527969 1.512609
											CHANNELS 6 Xposition Yposition Zposition Xrotation Yrotation Zrotation
											JOINT mixamorig:RightHandThumb4
											{
												OFFSET -2.018814 -1.152008 1.108052
												CHANNELS 6 Xposition Yposition Zposition Xrotation Yrotation Zrotation
												End Site
												{
													OFFSET -188.809540 -114.533607 132.431396
												}
											}
										}
									}
								}
								JOINT mixamorig:RightHandIndex1
								{
									OFFSET -9.108284 -0.517868 2.259835
									CHANNELS 6 Xposition Yposition Zposition Xrotation Yrotation Zrotation
									JOINT mixamorig:RightHandIndex2
									{
										OFFSET -3.699989 0.000000 0.001215
										CHANNELS 6 Xposition Yposition Zposition Xrotation Yrotation Zrotation
										JOINT mixamorig:RightHandIndex3
										{
											OFFSET -2.850006 0.000031 -0.000522
											CHANNELS 6 Xposition Yposition Zposition Xrotation Yrotation Zrotation
											JOINT mixamorig:RightHandIndex4
											{
												OFFSET -2.772186 -0.000015 -0.000020
												CHANNELS 6 Xposition Yposition Zposition Xrotation Yrotation Zrotation
												End Site
												{
													OFFSET -277.218445 0.000000 -0.050231
												}
											}
										}
									}
								}
								JOINT mixamorig:RightHandMiddle1
								{
									OFFSET -9.532516 -0.000031 -0.000023
									CHANNELS 6 Xposition Yposition Zposition Xrotation Yrotation Zrotation
									JOINT mixamorig:RightHandMiddle2
									{
										OFFSET -3.700005 -0.000015 0.003713
										CHANNELS 6 Xposition Yposition Zposition Xrotation Yrotation Zrotation
										JOINT mixamorig:RightHandMiddle3
										{
											OFFSET -2.949974 0.000015 -0.002054
											CHANNELS 6 Xposition Yposition Zposition Xrotation Yrotation Zrotation
											JOINT mixamorig:RightHandMiddle4
											{
												OFFSET -2.946640 0.000000 -0.000156
												CHANNELS 6 Xposition Yposition Zposition Xrotation Yrotation Zrotation
												End Site
												{
													OFFSET -294.664337 0.000000 -0.113670
												}
											}
										}
									}
								}
								JOINT mixamorig:RightHandRing1
								{
									OFFSET -9.103600 -0.043076 -1.865134
									CHANNELS 6 Xposition Yposition Zposition Xrotation Yrotation Zrotation
									JOINT mixamorig:RightHandRing2
									{
										OFFSET -3.379288 0.000000 -0.001055
										CHANNELS 6 Xposition Yposition Zposition Xrotation Yrotation Zrotation
										JOINT mixamorig:RightHandRing3
										{
											OFFSET -2.889687 -0.000015 0.000379
											CHANNELS 6 Xposition Yposition Zposition Xrotation Yrotation Zrotation
											JOINT mixamorig:RightHandRing4
											{
												OFFSET -2.638809 -0.000015 0.000941
												CHANNELS 6 Xposition Yposition Zposition Xrotation Yrotation Zrotation
												End Site
												{
													OFFSET -263.880371 0.000000 0.516020
												}
											}
										}
									}
								}
								JOINT mixamorig:RightHandPinky1
								{
									OFFSET -8.076683 -0.486710 -3.806280
									CHANNELS 6 Xposition Yposition Zposition Xrotation Yrotation Zrotation
									JOINT mixamorig:RightHandPinky2
									{
										OFFSET -3.600014 -0.000015 -0.003747
										CHANNELS 6 Xposition Yposition Zposition Xrotation Yrotation Zrotation
										JOINT mixamorig:RightHandPinky3
										{
											OFFSET -2.099983 0.000000 -0.005739
											CHANNELS 6 Xposition Yposition Zposition Xrotation Yrotation Zrotation
											JOINT mixamorig:RightHandPinky4
											{
												OFFSET -2.115768 -0.000031 -0.003680
												CHANNELS 6 Xposition Yposition Zposition Xrotation Yrotation Zrotation
												End Site
												{
													OFFSET -211.577087 0.000000 -0.350686
												}
											}
										}
									}
								}
							}
						}
					}
				}
				JOINT mixamorig:LeftShoulder
				{
					OFFSET 4.570447 11.014725 -2.160855
					CHANNELS 6 Xposition Yposition Zposition Xrotation Yrotation Zrotation
					JOINT mixamorig:LeftArm
					{
						OFFSET 10.592371 -0.524597 -2.232119
						CHANNELS 6 Xposition Yposition Zposition Xrotation Yrotation Zrotation
						JOINT mixamorig:LeftForeArm
						{
							OFFSET 27.841532 -0.000031 0.000026
							CHANNELS 6 Xposition Yposition Zposition Xrotation Yrotation Zrotation
							JOINT mixamorig:LeftHand
							{
								OFFSET 28.328846 -0.000061 0.000022
								CHANNELS 6 Xposition Yposition Zposition Xrotation Yrotation Zrotation
								JOINT mixamorig:LeftHandThumb1
								{
									OFFSET 2.466141 -1.576172 2.681732
									CHANNELS 6 Xposition Yposition Zposition Xrotation Yrotation Zrotation
									JOINT mixamorig:LeftHandThumb2
									{
										OFFSET 3.217812 -1.872070 1.916482
										CHANNELS 6 Xposition Yposition Zposition Xrotation Yrotation Zrotation
										JOINT mixamorig:LeftHandThumb3
										{
											OFFSET 2.656029 -1.528778 1.514513
											CHANNELS 6 Xposition Yposition Zposition Xrotation Yrotation Zrotation
											JOINT mixamorig:LeftHandThumb4
											{
												OFFSET 2.020889 -1.154053 1.115139
												CHANNELS 6 Xposition Yposition Zposition Xrotation Yrotation Zrotation
												End Site
												{
													OFFSET 190.885437 -115.081749 130.048782
												}
											}
										}
									}
								}
								JOINT mixamorig:LeftHandIndex1
								{
									OFFSET 9.109314 -0.518021 2.259871
									CHANNELS 6 Xposition Yposition Zposition Xrotation Yrotation Zrotation
									JOINT mixamorig:LeftHandIndex2
									{
										OFFSET 3.699989 0.000000 -0.000322
										CHANNELS 6 Xposition Yposition Zposition Xrotation Yrotation Zrotation
										JOINT mixamorig:LeftHandIndex3
										{
											OFFSET 2.850006 0.000000 0.000352
											CHANNELS 6 Xposition Yposition Zposition Xrotation Yrotation Zrotation
											JOINT mixamorig:LeftHandIndex4
											{
												OFFSET 2.774864 -0.000031 -0.000027
												CHANNELS 6 Xposition Yposition Zposition Xrotation Yrotation Zrotation
												End Site
												{
													OFFSET 277.486267 0.000000 -0.009857
												}
											}
										}
									}
								}
								JOINT mixamorig:LeftHandMiddle1
								{
									OFFSET 9.533394 0.000061 0.000044
									CHANNELS 6 Xposition Yposition Zposition Xrotation Yrotation Zrotation
									JOINT mixamorig:LeftHandMiddle2
									{
										OFFSET 3.699989 -0.000015 -0.000231
										CHANNELS 6 Xposition Yposition Zposition Xrotation Yrotation Zrotation
										JOINT mixamorig:LeftHandMiddle3
										{
											OFFSET 2.949997 -0.000015 -0.000059
											CHANNELS 6 Xposition Yposition Zposition Xrotation Yrotation Zrotation
											JOINT mixamorig:LeftHandMiddle4
											{
												OFFSET 2.952896 0.000031 0.000063
												CHANNELS 6 Xposition Yposition Zposition Xrotation Yrotation Zrotation
												End Site
												{
													OFFSET 295.289337 0.000000 0.022810
												}
											}
										}
									}
								}
								JOINT mixamorig:LeftHandRing1
								{
									OFFSET 9.104523 -0.042999 -1.865074
									CHANNELS 6 Xposition Yposition Zposition Xrotation Yrotation Zrotation
									JOINT mixamorig:LeftHandRing2
									{
										OFFSET 3.150009 -0.000031 0.000043
										CHANNELS 6 Xposition Yposition Zposition Xrotation Yrotation Zrotation
										JOINT mixamorig:LeftHandRing3
										{
											OFFSET 2.949982 -0.000015 0.000040
											CHANNELS 6 Xposition Yposition Zposition Xrotation Yrotation Zrotation
											JOINT mixamorig:LeftHandRing4
											{
												OFFSET 2.644348 0.000000 0.000057
												CHANNELS 6 Xposition Yposition Zposition Xrotation Yrotation Zrotation
												End Site
												{
													OFFSET 264.434631 0.000000 0.012105
												}
											}
										}
									}
								}
								JOINT mixamorig:LeftHandPinky1
								{
									OFFSET 8.077789 -0.486847 -3.806259
									CHANNELS 6 Xposition Yposition Zposition Xrotation Yrotation Zrotation
									JOINT mixamorig:LeftHandPinky2
									{
										OFFSET 3.599953 0.000031 0.014727
										CHANNELS 6 Xposition Yposition Zposition Xrotation Yrotation Zrotation
										JOINT mixamorig:LeftHandPinky3
										{
											OFFSET 2.100021 0.000015 0.007705
											CHANNELS 6 Xposition Yposition Zposition Xrotation Yrotation Zrotation
											JOINT mixamorig:LeftHandPinky4
											{
												OFFSET 2.125504 0.000031 0.007517
												CHANNELS 6 Xposition Yposition Zposition Xrotation Yrotation Zrotation
												End Site
												{
													OFFSET 212.550781 0.000000 0.625752
												}
											}
										}
									}
								}
							}
						}
					}
				}
			}
		}
	}
	JOINT mixamorig:RightUpLeg
	{
		OFFSET -8.207787 -6.751648 -1.599560
		CHANNELS 6 Xposition Yposition Zposition Xrotation Yrotation Zrotation
		JOINT mixamorig:RightLeg
		{
			OFFSET -0.000002 -44.370117 0.345942
			CHANNELS 6 Xposition Yposition Zposition Xrotation Yrotation Zrotation
			JOINT mixamorig:RightFoot
			{
				OFFSET 0.000003 -44.423679 -3.043532
				CHANNELS 6 Xposition Yposition Zposition Xrotation Yrotation Zrotation
				JOINT mixamorig:RightToeBase
				{
					OFFSET -0.000002 -8.728671 10.710558
					CHANNELS 6 Xposition Yposition Zposition Xrotation Yrotation Zrotation
					JOINT mixamorig:RightToe_End
					{
						OFFSET -0.000001 -0.000679 9.278119
						CHANNELS 6 Xposition Yposition Zposition Xrotation Yrotation Zrotation
						End Site
						{
							OFFSET 0.000000 -0.067690 927.812134
						}
					}
				}
			}
		}
	}
	JOINT mixamorig:LeftUpLeg
	{
		OFFSET 8.207793 -6.751686 -1.599556
		CHANNELS 6 Xposition Yposition Zposition Xrotation Yrotation Zrotation
		JOINT mixamorig:LeftLeg
		{
			OFFSET -0.000004 -44.370014 0.346954
			CHANNELS 6 Xposition Yposition Zposition Xrotation Yrotation Zrotation
			JOINT mixamorig:LeftFoot
			{
				OFFSET -0.000001 -44.423672 -3.044401
				CHANNELS 6 Xposition Yposition Zposition Xrotation Yrotation Zrotation
				JOINT mixamorig:LeftToeBase
				{
					OFFSET -0.000002 -8.728669 10.710558
					CHANNELS 6 Xposition Yposition Zposition Xrotation Yrotation Zrotation
					JOINT mixamorig:LeftToe_End
					{
						OFFSET -0.000003 -0.000679 9.278133
						CHANNELS 6 Xposition Yposition Zposition Xrotation Yrotation Zrotation
						End Site
						{
							OFFSET 0.000000 -0.068021 927.813477
						}
					}
				}
			}
		}
	}
}
MOTION
Frames: 3
Frame Time: 0.033333
0.000006 104.270477 1.554256 0.000010 0.000003 -0.000113 -0.000005 10.181587 0.131522 0.000001 -0.000003 0.000084 -0.000000 9.893967 -1.470711 0.000001 0.000000 -0.000000 -0.000000 9.220802 -1.370642 0.000000 -0.000000 -0.000000 0.000001 16.740433 -2.049030 0.000000 -0.000000 -0.000000 0.000000 9.617859 1.685014 0.000000 0.000000 0.000000 0.000002 22.037384 7.501101 0.000000 -0.000000 0.000000 -4.569968 11.014880 -2.160881 0.000008 0.000001 -0.000038 -10.592871 -0.524779 -2.231871 76.971724 35.093119 -28.221662 -27.841524 0.000005 0.000535 -57.795087 106.757100 73.198973 -28.328806 0.000023 0.000033 -0.000324 -0.000043 0.000004 -2.464450 -1.573987 2.682375 -20.560932 -147.853870 40.226157 -3.215176 -1.872440 1.924597 141.963474 33.902761 55.782647 -2.654945 -1.527883 1.513073 153.595819 26.439838 -31.488275 -2.018819 -1.152000 1.108060 -0.000002 -0.000003 0.000002 -9.108399 -0.517596 2.260196 113.430905 17.392887 -26.302314 -3.700078 0.000283 0.001575 109.697271 15.638306 -22.036449 -2.850089 0.000335 -0.000183 108.903712 12.124773 -16.906649 -2.772158 -0.000016 -0.000018 0.000002 -0.000004 0.000001 -9.532603 0.000242 0.000304 108.029311 16.371154 -22.605095 -3.700075 0.000290 0.004051 107.923915 14.392993 -19.558279 -2.950063 0.000332 -0.001742 108.548501 12.003351 -16.622194 -2.946624 0.000014 -0.000155 0.000001 0.000000 -0.000000 -9.103725 -0.042782 -1.864811 106.071123 18.684276 -24.601797 -3.379355 0.000303 -0.000730 110.521142 12.456078 -17.912654 -2.889775 0.000330 0.000750 114.860682 7.825054 -12.295035 -2.638812 -0.000001 0.000935 -0.000003 0.000001 0.000001 -8.076782 -0.486411 -3.805999 93.735003 20.281909 -21.453361 -3.600060 0.000284 -0.003468 99.816856 9.782036 -11.180064 -2.100004 0.000322 -0.005436 104.141547 4.237314 -5.159750 -2.115787 -0.000026 -0.003680 -0.000000 -0.000001 -0.000002 4.570446 11.014691 -2.160851 -0.000018 0.000010 -0.000021 10.592411 -0.524469 -2.232354 74.007183 -16.047888 12.128838 27.841825 0.000062 -0.000200 99.879243 -71.170155 80.790374 28.328817 -0.000029 0.000019 0.000023 -0.000090 -0.000000 2.466046 -1.576153 2.681906 -34.344640 160.332789 -21.392443 3.217795 -1.871742 1.916368 156.447150 -30.785947 2.126488 2.656084 -1.528597 1.514434 145.451269 -27.295239 34.928618 2.020891 -1.154050 1.115148 0.000001 0.000001 0.000002 9.109372 -0.517851 2.259726 82.685669 -16.370406 14.414566 3.700043 0.000138 -0.000451 79.774881 -17.665540 14.814317 2.850039 0.000154 0.000226 76.238626 -14.999331 11.793930 2.774863 -0.000026 -0.000029 -0.000000 0.000000 0.000000 9.533471 0.000212 -0.000087 81.535117 -15.658255 13.514266 3.700052 0.000151 -0.000364 83.918894 -17.395536 15.661146 2.950055 0.000140 -0.000187 80.385063 -20.105884 17.038848 2.952871 -0.000043 0.000064 -0.000003 -0.000001 0.000001 9.104597 -0.042850 -1.865245 78.205707 -15.134917 12.326931 3.150054 0.000170 -0.000095 83.912330 -16.098315 14.492645 2.950023 0.000124 -0.000070 81.723637 -17.770269 15.404985 2.644335 0.000044 0.000057 0.000000 0.000001 -0.000001 8.077846 -0.486742 -3.806401 63.853738 -17.060505 11.059997 3.600017 0.000122 0.014564 63.415875 -14.513582 9.325316 2.100035 0.000128 0.007565 65.695929 -13.479380 9.050667 2.125518 -0.000017 0.007520 0.000000 -0.000001 0.000000 -8.207786 -6.751667 -1.599560 -0.077001 -0.000003 0.000080 -0.000002 -44.370110 0.345938 0.153719 -0.000000 -0.000000 0.000000 -44.423679 -3.043532 -0.076700 0.000000 -0.000002 -0.000006 -8.728667 10.710559 -0.000009 -0.000000 -0.000000 -0.000001 -0.000679 9.278123 0.000000 -0.000000 -0.000000 8.207792 -6.751710 -1.599556 -0.074518 -0.000003 0.000081 -0.000002 -44.370014 0.346960 0.148822 0.000002 0.000000 -0.000001 -44.423664 -3.044403 -0.074314 0.000000 -0.000002 -0.000004 -8.728671 10.710558 0.000007 -0.000000 -0.000000 0.000000 -0.000680 9.278137 -0.000000 0.000000 -0.000001 
0.000006 104.270477 1.554256 0.000010 0.000003 -0.000113 -0.000005 10.181587 0.131522 0.000001 -0.000003 0.000084 -0.000000 9.893967 -1.470711 0.000001 0.000000 -0.000000 -0.000000 9.220802 -1.370642 0.000000 -0.000000 -0.000000 0.000001 16.740433 -2.049030 0.000000 -0.000000 -0.000000 0.000000 9.617859 1.685014 0.000000 0.000000 0.000000 0.000002 22.037384 7.501101 0.000000 -0.000000 0.000000 -4.569968 11.014880 -2.160881 0.000008 0.000001 -0.000038 -10.592868 -0.524795 -2.231875 76.771681 36.124761 -28.971426 -27.841528 -0.000001 0.000541 -54.587924 104.922142 67.764677 -28.328819 0.000021 0.000029 -0.000321 -0.000045 0.000006 -2.464374 -1.573834 2.682336 -42.018631 -153.618481 2.140921 -3.215190 -1.872451 1.924603 141.172743 32.997341 50.146511 -2.654943 -1.527868 1.513057 151.531012 28.014284 -21.730102 -2.018835 -1.152013 1.108056 -0.000003 0.000000 0.000005 -9.108386 -0.517580 2.260200 113.744499 16.084274 -24.504145 -3.700071 0.000301 0.001557 110.104541 14.679326 -20.852159 -2.850087 0.000349 -0.000197 109.415068 12.212873 -17.187864 -2.772163 -0.000016 -0.000019 0.000003 0.000000 -0.000000 -9.532609 0.000251 0.000303 106.484821 17.938720 -24.055631 -3.700081 0.000315 0.004043 108.169597 14.822035 -20.228223 -2.950067 0.000325 -0.001742 110.515958 12.700065 -18.222060 -2.946628 -0.000016 -0.000155 0.000002 -0.000004 0.000001 -9.103712 -0.042778 -1.864802 104.709320 20.382287 -26.178737 -3.379343 0.000313 -0.000746 108.799244 12.086618 -16.848060 -2.889760 0.000355 0.000727 114.538994 7.910880 -12.352572 -2.638824 -0.000028 0.000938 -0.000002 -0.000001 0.000000 -8.076771 -0.486407 -3.805970 94.502012 22.374663 -23.984745 -3.600059 0.000295 -0.003462 98.214944 11.053313 -12.327852 -2.100017 0.000320 -0.005433 102.109607 5.447978 -6.467399 -2.115763 -0.000042 -0.003683 -0.000000 -0.000000 0.000001 4.570446 11.014691 -2.160851 -0.000018 0.000010 -0.000021 10.592413 -0.524470 -2.232365 73.459333 -17.251297 12.915895 27.841818 0.000047 -0.000203 103.871079 -75.374382 89.221661 28.328838 -0.000028 0.000019 0.000022 -0.000088 0.000000 2.466128 -1.576167 2.681889 -20.784372 159.651478 -48.952078 3.217829 -1.871762 1.916364 161.273634 -29.466939 10.118053 2.656113 -1.528649 1.514464 145.576740 -26.140181 47.793094 2.020880 -1.154067 1.115134 0.000002 0.000004 0.000001 9.109369 -0.517868 2.259736 83.046310 -18.098669 16.042882 3.700041 0.000156 -0.000469 79.222886 -13.660425 11.336552 2.850031 0.000181 0.000201 78.698894 -11.543063 9.473970 2.774903 -0.000031 -0.000028 0.000001 -0.000001 -0.000000 9.533464 0.000191 -0.000104 80.505220 -16.943657 14.367137 3.700033 0.000155 -0.000365 82.726869 -12.493646 11.007886 2.950064 0.000172 -0.000197 83.576230 -12.771208 11.426158 2.952866 -0.000016 0.000065 -0.000001 -0.000001 -0.000000 9.104578 -0.042872 -1.865225 77.470314 -17.411810 14.006985 3.150052 0.000187 -0.000098 83.356558 -12.996938 11.582946 2.950015 0.000154 -0.000070 85.418523 -11.298800 10.436220 2.644317 0.000015 0.000053 0.000001 -0.000001 0.000000 8.077833 -0.486765 -3.806398 66.381844 -18.659124 12.673307 3.599995 0.000137 0.014573 65.695246 -15.472865 10.371646 2.100039 0.000143 0.007541 68.700262 -11.574115 8.257798 2.125511 -0.000041 0.007514 0.000003 -0.000001 0.000000 -8.207786 -6.751667 -1.599560 -0.077001 -0.000003 0.000080 -0.000002 -44.370110 0.345938 0.153719 -0.000000 -0.000000 0.000000 -44.423679 -3.043532 -0.076700 0.000000 -0.000002 -0.000006 -8.728667 10.710559 -0.000009 -0.000000 -0.000000 -0.000001 -0.000679 9.278123 0.000000 -0.000000 -0.000000 8.207792 -6.751710 -1.599556 -0.074518 -0.000003 0.000081 -0.000002 -44.370014 0.346960 0.148822 0.000002 0.000000 -0.000001 -44.423664 -3.044403 -0.074314 0.000000 -0.000002 -0.000004 -8.728671 10.710558 0.000007 -0.000000 -0.000000 0.000000 -0.000680 9.278137 -0.000000 0.000000 -0.000001 
0.000006 104.270477 1.554256 0.000010 0.000003 -0.000113 -0.000005 10.181587 0.131522 0.000001 -0.000003 0.000084 -0.000000 9.893967 -1.470711 0.000001 0.000000 -0.000000 -0.000000 9.220802 -1.370642 0.000000 -0.000000 -0.000000 0.000001 16.740433 -2.049030 0.000000 -0.000000 -0.000000 0.000000 9.617859 1.685014 0.000000 0.000000 0.000000 0.000002 22.037384 7.501101 0.000000 -0.000000 0.000000 -4.569968 11.014880 -2.160881 0.000008 0.000001 -0.000038 -10.592857 -0.524797 -2.231838 76.374451 41.382381 -33.091129 -27.841530 -0.000004 0.000561 -52.766978 103.290055 64.164211 -28.328835 0.000020 0.000029 -0.000319 -0.000044 0.000009 -2.464382 -1.573851 2.682329 -41.230621 -152.483905 3.509134 -3.215170 -1.872447 1.924601 140.023154 32.679501 54.175951 -2.654959 -1.527858 1.513057 151.748266 27.988981 -21.800436 -2.018831 -1.151987 1.108077 -0.000000 -0.000002 0.000004 -9.108377 -0.517569 2.260206 113.280832 15.521463 -23.460646 -3.700053 0.000298 0.001591 110.122368 13.817982 -19.645856 -2.850100 0.000355 -0.000193 109.829961 11.347783 -16.100117 -2.772163 -0.000012 -0.000021 0.000000 0.000004 -0.000000 -9.532587 0.000252 0.000309 107.073583 16.811283 -22.808761 -3.700082 0.000306 0.004051 108.446499 13.638074 -18.710731 -2.950074 0.000317 -0.001738 110.688372 11.986547 -17.260547 -2.946630 0.000002 -0.000147 -0.000000 0.000001 -0.000001 -9.103697 -0.042777 -1.864802 105.175672 18.940000 -24.545629 -3.379367 0.000315 -0.000718 109.256710 10.927331 -15.371622 -2.889764 0.000352 0.000719 114.969268 7.400362 -11.658192 -2.638804 -0.000027 0.000935 -0.000004 -0.000004 0.000001 -8.076746 -0.486395 -3.805967 95.616337 21.313885 -23.283543 -3.600064 0.000280 -0.003470 97.941969 10.028158 -11.099250 -2.100022 0.000326 -0.005432 101.731740 4.755380 -5.576408 -2.115772 -0.000055 -0.003677 -0.000000 -0.000003 -0.000004 4.570446 11.014691 -2.160851 -0.000018 0.000010 -0.000021 10.592452 -0.524474 -2.232403 72.696613 -32.967322 24.568585 27.841831 0.000042 -0.000183 105.939991 -76.823898 92.854858 28.328844 -0.000028 0.000024 0.000020 -0.000089 -0.000002 2.466253 -1.576045 2.681823 8.537009 169.799869 -103.648913 3.217799 -1.871749 1.916386 165.320399 -29.603805 9.907821 2.656115 -1.528675 1.514474 143.517875 -26.215502 54.749369 2.020883 -1.154078 1.115150 0.000000 -0.000001 0.000002 9.109385 -0.517862 2.259727 86.648074 -20.654287 19.490992 3.700066 0.000170 -0.000471 84.899415 -13.449367 12.327169 2.850048 0.000193 0.000195 85.229894 -10.466166 9.632113 2.774881 -0.000030 -0.000026 0.000001 0.000001 -0.000001 9.533467 0.000192 -0.000081 81.747686 -18.916084 16.399856 3.700045 0.000186 -0.000370 83.908860 -10.025174 9.014336 2.950050 0.000177 -0.000199 85.043717 -11.280499 10.352571 2.952879 -0.000016 0.000063 0.000002 0.000001 0.000001 9.104589 -0.042874 -1.865213 79.521420 -18.711843 15.612643 3.150042 0.000190 -0.000096 84.932084 -12.286044 11.253351 2.950006 0.000178 -0.000104 87.486944 -10.889727 10.426566 2.644325 0.000032 0.000055 0.000003 0.000001 -0.000000 8.077826 -0.486759 -3.806408 67.685173 -19.377573 13.478925 3.599994 0.000127 0.014578 66.644014 -16.112975 10.987569 2.100026 0.000140 0.007551 69.389627 -12.882018 9.280851 2.125519 -0.000014 0.007515 0.000001 0.000002 -0.000000 -8.207786 -6.751667 -1.599560 -0.077001 -0.000003 0.000080 -0.000002 -44.370110 0.345938 0.153719 -0.000000 -0.000000 0.000000 -44.423679 -3.043532 -0.076700 0.000000 -0.000002 -0.000006 -8.728667 10.710559 -0.000009 -0.000000 -0.000000 -0.000001 -0.000679 9.278123 0.000000 -0.000000 -0.000000 8.207792 -6.751710 -1.599556 -0.074518 -0.000003 0.000081 -0.000002 -44.370014 0.346960 0.148822 0.000002 0.000000 -0.000001 -44.423664 -3.044403 -0.074314 0.000000 -0.000002 -0.000004 -8.728671 10.710558 0.000007 -0.000000 -0.000000 0.000000 -0.000680 9.278137 -0.000000 0.000000 -0.000001 
